<svg width="16" height="24" viewBox="0 0 16 24" fill="none" xmlns="http://www.w3.org/2000/svg">
<path d="M10.3333 1H5.66667V2.22222H8H10.3333V1Z" fill="#409CFF"/>
<path d="M9.99162 3.08646C10.2104 2.85725 10.3333 2.54638 10.3333 2.22222H8H5.66667C5.66667 2.54638 5.78958 2.85725 6.00838 3.08646C6.22717 3.31567 6.52391 3.44444 6.83333 3.44444H9.16667C9.47609 3.44444 9.77283 3.31567 9.99162 3.08646Z" fill="#409CFF"/>
<path d="M5.66667 1H3.33333C2.71449 1 2.121 1.25754 1.68342 1.71596C1.24583 2.17438 1 2.79614 1 3.44444V20.5556C1 21.2039 1.24583 21.8256 1.68342 22.284C2.121 22.7425 2.71449 23 3.33333 23H12.6667C13.2855 23 13.879 22.7425 14.3166 22.284C14.7542 21.8256 15 21.2039 15 20.5556V3.44444C15 2.79614 14.7542 2.17438 14.3166 1.71596C13.879 1.25754 13.2855 1 12.6667 1H10.3333M5.66667 1H10.3333M5.66667 1V2.22222M10.3333 1V2.22222M5.66667 2.22222C5.66667 2.54638 5.78958 2.85725 6.00838 3.08646C6.22717 3.31567 6.52391 3.44444 6.83333 3.44444H9.16667C9.47609 3.44444 9.77283 3.31567 9.99162 3.08646C10.2104 2.85725 10.3333 2.54638 10.3333 2.22222M5.66667 2.22222H8H10.3333M4.5 7.11233V7.11111M4.5 10.779V10.7778M8 10.779V10.7778M8 7.11233V7.11111M11.5 7.11233V7.11111M11.5 10.779V10.7778M4.5 14.4457V14.4444M8 14.4457V14.4444" stroke="#409CFF" stroke-width="1.6" stroke-linecap="round" stroke-linejoin="round"/>
</svg>
