<svg width="12" height="14" viewBox="0 0 12 14" fill="none" xmlns="http://www.w3.org/2000/svg">
<g clip-path="url(#clip0_174_1282)">
<path d="M3.85938 2.125H7.51562V1.10938C7.51562 0.772949 7.7873 0.5 8.125 0.5C8.4627 0.5 8.73438 0.772949 8.73438 1.10938V2.125H9.75C10.6463 2.125 11.375 2.85244 11.375 3.75V11.875C11.375 12.7713 10.6463 13.5 9.75 13.5H1.625C0.727441 13.5 0 12.7713 0 11.875V3.75C0 2.85244 0.727441 2.125 1.625 2.125H2.64062V1.10938C2.64062 0.772949 2.9123 0.5 3.25 0.5C3.5877 0.5 3.85938 0.772949 3.85938 1.10938V2.125ZM1.21875 11.875C1.21875 12.0984 1.40055 12.2812 1.625 12.2812H9.75C9.97344 12.2812 10.1562 12.0984 10.1562 11.875V5.375H1.21875V11.875Z" fill="#AEB1BC"/>
<path d="M4.3335 7L7.22238 7L5.34231 10.6111" stroke="#AEB1BC" stroke-linecap="round" stroke-linejoin="round"/>
</g>
<defs>
<clipPath id="clip0_174_1282">
<rect width="11.375" height="13" fill="white" transform="translate(0 0.5)"/>
</clipPath>
</defs>
</svg>
