<svg width="25" height="16" viewBox="0 0 25 16" fill="none" xmlns="http://www.w3.org/2000/svg">
<path d="M21.368 10.3566C21.3664 10.6039 21.2692 10.8406 21.0977 11.0155C20.9261 11.1903 20.6939 11.2893 20.4513 11.291H16.7555C16.5128 11.2896 16.2804 11.1907 16.1088 11.0158C15.9372 10.8409 15.8402 10.604 15.8388 10.3566C15.8405 10.1093 15.9376 9.87264 16.1091 9.69777C16.2807 9.5229 16.5129 9.42393 16.7555 9.42226H20.4513C20.6938 9.42447 20.9257 9.52363 21.0971 9.69838C21.2685 9.87313 21.3658 10.1095 21.368 10.3566ZM8.47632 10.3566C8.47496 10.604 8.37794 10.8409 8.20633 11.0158C8.03472 11.1907 7.80235 11.2896 7.55966 11.291H3.86382C3.62113 11.2896 3.38877 11.1907 3.21715 11.0158C3.04554 10.8409 2.94853 10.604 2.94716 10.3566C2.9488 10.1093 3.0459 9.87264 3.21745 9.69777C3.38901 9.5229 3.62122 9.42393 3.86382 9.42226H7.55966C7.80209 9.4242 8.03403 9.5233 8.20536 9.69814C8.37669 9.87298 8.47365 10.1095 8.47528 10.3566H8.47632ZM6.55966 1.68505H18.4388L19.8961 5.46712C19.8732 5.46712 19.8503 5.46287 19.8242 5.46287H5.10133L6.55966 1.68505ZM24.9763 4.55823C24.9161 4.18942 24.7148 3.86002 24.4166 3.64227C24.1184 3.42451 23.7477 3.33618 23.3857 3.39664L23.394 3.39558L21.1201 3.77357C21.0867 3.77997 21.054 3.7892 21.0222 3.80118L21.0274 3.79906L19.5628 0H5.43153L3.96695 3.79906C3.93737 3.78865 3.90708 3.78049 3.87632 3.77464L1.60028 3.39558C1.24059 3.33801 0.873101 3.42686 0.577094 3.64297C0.281087 3.85908 0.0802814 4.18514 0.0179916 4.5508L0.0169499 4.55929C-0.0398133 4.92598 0.0472443 5.3007 0.25931 5.60249C0.471376 5.90428 0.79142 6.1089 1.15028 6.17214L1.15862 6.1732L2.48257 6.39512C1.6421 7.21743 1.15523 8.3455 1.12841 9.53268V16H5.71174V13.5579H18.6586V16H23.2419V12.5513C23.2607 12.4706 23.2711 12.3783 23.2711 12.2827V9.53693C23.2458 8.39239 22.794 7.30058 22.0076 6.48324L22.0086 6.48431L23.8482 6.17639C24.2098 6.11473 24.5326 5.9094 24.7458 5.60545C24.9591 5.3015 25.0453 4.92374 24.9857 4.55505L24.9867 4.56354L24.9763 4.55823Z" fill="#F5D75D"/>
</svg>
