<svg width="27" height="24" viewBox="0 0 27 24" fill="none" xmlns="http://www.w3.org/2000/svg">
<path fill-rule="evenodd" clip-rule="evenodd" d="M3.63583 18.4503C3.63583 18.4503 0 15.9633 0 11.0583C0 3.75686 7.73845 1.05698 11.8988 1.12933C16.0604 1.2024 17.3007 2.29745 17.3007 2.29745C17.3007 2.29745 18.717 1.26785 20.2179 0.405774C21.3665 -0.0422761 21.633 -0.106379 22.4308 0.150268C23.0697 0.150268 22.6679 1.21363 22.411 1.59691C22.1571 1.98039 20.9198 4.09703 20.9198 4.09703C20.9198 4.09703 23.5164 6.77085 23.708 8.52812C23.708 8.49641 24.9303 8.51824 25.6011 8.51824C26.2713 8.51824 26.2081 9.24844 26.2081 9.24844L26.1893 14.395C26.1893 14.395 26.2311 15.1252 25.6227 15.1252C25.0159 15.1252 23.7252 15.139 23.7252 15.139C23.7252 15.139 21.9098 17.7758 20.7589 18.2547C20.7589 18.2866 21.7533 20.9878 21.7533 20.9878C21.7533 20.9878 22.2326 21.8182 21.3703 22.1385C20.5075 22.4574 18.2579 23.4018 17.2993 23.6899C16.3404 23.9784 16.204 23.3252 16.204 23.3252L15.2552 21.2761L9.04847 21.286L8.09951 23.3987C8.09951 23.3987 7.91777 24.3789 6.64023 23.8364C5.36182 23.2935 3.96618 22.6499 2.91176 22.1072C1.85828 21.5643 2.55171 20.5501 2.55171 20.5501L3.63484 18.4509L3.63583 18.4503ZM20.3956 9.55835C20.9776 9.55835 21.4491 9.08503 21.4491 8.5037C21.4491 7.92169 20.9778 7.44998 20.3956 7.44998C19.8138 7.44998 19.3412 7.92169 19.3412 8.5037C19.3412 9.08501 19.8138 9.55835 20.3956 9.55835ZM5.54515 6.27403C5.88107 6.67268 6.10119 6.37904 6.37164 6.29931C6.37164 6.29931 7.51935 5.23477 9.20444 4.73803C10.9507 4.22472 12.7877 4.47265 12.7877 4.47265C13.0584 4.39291 13.3871 4.38441 13.3899 3.966C13.3756 3.44995 12.7489 3.44512 12.7564 3.42812C12.7564 3.42812 10.6885 3.23718 8.9581 3.74566C7.25577 4.24609 5.95572 5.33311 5.95572 5.33311C5.95572 5.33311 5.26046 5.81264 5.54535 6.27424L5.54515 6.27403Z" fill="#EF6BD2"/>
</svg>
