<svg width="31" height="24" viewBox="0 0 31 24" fill="none" xmlns="http://www.w3.org/2000/svg">
<path d="M5 4.5C5 3.39543 5.89543 2.5 7 2.5H9V22.5H5V4.5Z" fill="#409CFF"/>
<path d="M0 8.5C0 7.39543 0.895431 6.5 2 6.5H4V21.5H0V8.5Z" fill="#409CFF"/>
<path d="M30.0709 5.905L30.0836 5.89222L25.3491 1.13889L24 2.49333L26.6855 5.18944C25.4891 5.64944 24.6364 6.79944 24.6364 8.16667C24.6364 8.58617 24.7187 9.00156 24.8786 9.38913C25.0385 9.7767 25.2728 10.1288 25.5683 10.4255C26.165 11.0246 26.9743 11.3611 27.8182 11.3611C28.2764 11.3611 28.6964 11.2589 29.0909 11.0928V20.3056C29.0909 21.0083 28.5182 21.5833 27.8182 21.5833C27.1182 21.5833 26.5455 21.0083 26.5455 20.3056V14.5556C26.5455 13.15 25.4 12 24 12H22.7273V3.05556C22.7273 1.65 21.5818 0.5 20.1818 0.5H12.5455C11.1455 0.5 10 1.65 10 3.05556V23.5H22.7273V13.9167H24.6364V20.3056C24.6364 21.1528 24.9716 21.9653 25.5683 22.5644C26.165 23.1634 26.9743 23.5 27.8182 23.5C28.6621 23.5 29.4714 23.1634 30.0681 22.5644C30.6648 21.9653 31 21.1528 31 20.3056V8.16667C31 7.285 30.6436 6.48 30.0709 5.905ZM27.8182 9.44444C27.1182 9.44444 26.5455 8.86944 26.5455 8.16667C26.5455 7.46389 27.1182 6.88889 27.8182 6.88889C28.5182 6.88889 29.0909 7.46389 29.0909 8.16667C29.0909 8.86944 28.5182 9.44444 27.8182 9.44444ZM15.0909 19.6667V13.9167H12.5455L17.6364 4.33333V10.7222H20.1818L15.0909 19.6667Z" fill="#409CFF"/>
<path d="M7 15.5L9 8.5V15.5H7Z" fill="#02061C"/>
<path d="M3 16.5L4 10.5V16.5H3Z" fill="#02061C"/>
</svg>
