<svg width="24" height="22" viewBox="0 0 24 22" fill="none" xmlns="http://www.w3.org/2000/svg">
<path d="M23.5207 16.1337L15.1483 2.2488C14.8098 1.71918 14.3433 1.28332 13.792 0.981409C13.2407 0.679493 12.6222 0.52124 11.9936 0.52124C11.3651 0.52124 10.7466 0.679493 10.1953 0.981409C9.64396 1.28332 9.17752 1.71918 8.83898 2.2488L0.466547 16.1337C0.170787 16.6267 0.0100356 17.1889 0.00045484 17.7638C-0.00912594 18.3386 0.132802 18.9059 0.411968 19.4085C0.734726 19.9742 1.2019 20.4441 1.76575 20.7701C2.3296 21.0962 2.9699 21.2666 3.62122 21.2642H20.3661C21.0131 21.2711 21.6505 21.1072 22.214 20.789C22.7775 20.4709 23.247 20.0097 23.5753 19.4521C23.8627 18.9443 24.0092 18.3689 23.9996 17.7855C23.99 17.2021 23.8247 16.6318 23.5207 16.1337ZM21.6651 18.3715C21.5339 18.597 21.3435 18.7823 21.1145 18.9074C20.8855 19.0324 20.6267 19.0925 20.3661 19.081H3.62122C3.36057 19.0925 3.10175 19.0324 2.87278 18.9074C2.64382 18.7823 2.45343 18.597 2.32224 18.3715C2.22643 18.2055 2.17599 18.0173 2.17599 17.8257C2.17599 17.6341 2.22643 17.4458 2.32224 17.2799L10.7056 3.38405C10.8562 3.18506 11.0509 3.02368 11.2744 2.91256C11.4979 2.80145 11.7441 2.74363 11.9936 2.74363C12.2432 2.74363 12.4894 2.80145 12.7129 2.91256C12.9364 3.02368 13.1311 3.18506 13.2817 3.38405L21.6541 17.269C21.7537 17.4352 21.8071 17.625 21.809 17.8187C21.8109 18.0125 21.7613 18.2033 21.6651 18.3715Z" fill="#409CFF"/>
<path d="M11.9939 16.8976C12.5968 16.8976 13.0855 16.4089 13.0855 15.8061C13.0855 15.2032 12.5968 14.7145 11.9939 14.7145C11.3911 14.7145 10.9023 15.2032 10.9023 15.8061C10.9023 16.4089 11.3911 16.8976 11.9939 16.8976Z" fill="#409CFF"/>
<path d="M11.9939 7.07336C11.7044 7.07336 11.4268 7.18837 11.2221 7.39308C11.0173 7.59779 10.9023 7.87544 10.9023 8.16495V12.5313C10.9023 12.8208 11.0173 13.0984 11.2221 13.3031C11.4268 13.5078 11.7044 13.6229 11.9939 13.6229C12.2834 13.6229 12.5611 13.5078 12.7658 13.3031C12.9705 13.0984 13.0855 12.8208 13.0855 12.5313V8.16495C13.0855 7.87544 12.9705 7.59779 12.7658 7.39308C12.5611 7.18837 12.2834 7.07336 11.9939 7.07336Z" fill="#409CFF"/>
</svg>
