<svg width="29" height="26" viewBox="0 0 29 26" fill="none" xmlns="http://www.w3.org/2000/svg">
<path d="M28.14 19.0542L18.233 2.62418C17.8324 1.99748 17.2804 1.48173 16.628 1.12447C15.9757 0.767217 15.2438 0.579956 14.5 0.579956C13.7563 0.579956 13.0244 0.767217 12.372 1.12447C11.7197 1.48173 11.1677 1.99748 10.7671 2.62418L0.860048 19.0542C0.510075 19.6376 0.319859 20.3028 0.308522 20.983C0.297185 21.6632 0.465127 22.3344 0.795465 22.9292C1.17738 23.5986 1.73019 24.1546 2.39739 24.5404C3.06459 24.9262 3.82226 25.128 4.59296 25.125H24.4071C25.1728 25.1332 25.927 24.9392 26.5938 24.5628C27.2605 24.1863 27.8162 23.6407 28.2046 22.9808C28.5447 22.3799 28.718 21.6991 28.7066 21.0087C28.6953 20.3184 28.4997 19.6436 28.14 19.0542ZM14.5 19.9583C14.2446 19.9583 13.9948 19.8826 13.7824 19.7407C13.57 19.5987 13.4045 19.397 13.3067 19.161C13.2089 18.925 13.1834 18.6652 13.2332 18.4147C13.283 18.1641 13.4061 17.934 13.5867 17.7533C13.7673 17.5727 13.9975 17.4497 14.2481 17.3998C14.4986 17.35 14.7583 17.3756 14.9943 17.4733C15.2304 17.5711 15.4321 17.7367 15.574 17.9491C15.716 18.1615 15.7917 18.4112 15.7917 18.6667C15.7917 19.0092 15.6556 19.3378 15.4134 19.58C15.1712 19.8223 14.8426 19.9583 14.5 19.9583ZM15.7917 14.7917C15.7917 15.1342 15.6556 15.4628 15.4134 15.705C15.1712 15.9473 14.8426 16.0833 14.5 16.0833C14.1575 16.0833 13.8289 15.9473 13.5867 15.705C13.3445 15.4628 13.2084 15.1342 13.2084 14.7917V9.62501C13.2084 9.28244 13.3445 8.9539 13.5867 8.71167C13.8289 8.46943 14.1575 8.33334 14.5 8.33334C14.8426 8.33334 15.1712 8.46943 15.4134 8.71167C15.6556 8.9539 15.7917 9.28244 15.7917 9.62501V14.7917Z" fill="#FF6482"/>
</svg>
