<svg width="21" height="21" viewBox="0 0 21 21" fill="none" xmlns="http://www.w3.org/2000/svg">
<path fill-rule="evenodd" clip-rule="evenodd" d="M2.88 0H2.8C2.4336 0 2.1184 1.11759e-08 1.84 0.0656C1.40902 0.168584 1.01496 0.388874 0.701489 0.702063C0.388018 1.01525 0.167372 1.40911 0.0639999 1.84C-6.14673e-08 2.1184 0 2.432 0 2.8V6.8C0 7.1664 1.11759e-08 7.4816 0.0656 7.76C0.168584 8.19098 0.388874 8.58504 0.702063 8.89851C1.01525 9.21198 1.40911 9.43263 1.84 9.536C2.1184 9.6 2.432 9.6 2.8 9.6H6.8C7.1664 9.6 7.4816 9.6 7.76 9.5344C8.19098 9.43142 8.58504 9.21113 8.89851 8.89794C9.21198 8.58475 9.43263 8.19089 9.536 7.76C9.6 7.4816 9.6 7.168 9.6 6.8V2.8C9.6 2.4336 9.6 2.1184 9.5344 1.84C9.43141 1.40902 9.21112 1.01496 8.89793 0.701489C8.58475 0.388018 8.19089 0.167372 7.76 0.0639999C7.4816 -5.58794e-08 7.168 0 6.8 0H2.88ZM2.2128 1.6224C2.2816 1.6064 2.3888 1.6 2.88 1.6H6.72C7.2128 1.6 7.3184 1.6048 7.3872 1.6224C7.53093 1.65677 7.66232 1.73028 7.76682 1.83478C7.87132 1.93927 7.94483 2.07067 7.9792 2.2144C7.9952 2.2816 8 2.3872 8 2.88V6.72C8 7.2128 7.9952 7.3184 7.9776 7.3872C7.94323 7.53093 7.86972 7.66233 7.76522 7.76682C7.66073 7.87132 7.52933 7.94483 7.3856 7.9792C7.32 7.9936 7.2144 8 6.72 8H2.88C2.3872 8 2.2816 7.9952 2.2128 7.9776C2.06907 7.94323 1.93767 7.86972 1.83318 7.76522C1.72868 7.66073 1.65517 7.52933 1.6208 7.3856C1.6064 7.32 1.6 7.2144 1.6 6.72V2.88C1.6 2.3872 1.6048 2.2816 1.6224 2.2128C1.65677 2.06907 1.73028 1.93767 1.83478 1.83318C1.93927 1.72868 2.07067 1.65517 2.2144 1.6208L2.2128 1.6224ZM14.08 0H14C13.6336 0 13.3184 1.11759e-08 13.04 0.0656C12.609 0.168584 12.215 0.388874 11.9015 0.702063C11.588 1.01525 11.3674 1.40911 11.264 1.84C11.2 2.1184 11.2 2.432 11.2 2.8V6.8C11.2 7.1664 11.2 7.4816 11.2656 7.76C11.3686 8.19098 11.5889 8.58504 11.9021 8.89851C12.2152 9.21198 12.6091 9.43263 13.04 9.536C13.3184 9.6 13.632 9.6 14 9.6H18C18.3664 9.6 18.6816 9.6 18.96 9.5344C19.391 9.43142 19.785 9.21113 20.0985 8.89794C20.412 8.58475 20.6326 8.19089 20.736 7.76C20.8 7.4816 20.8 7.168 20.8 6.8V2.8C20.8 2.4336 20.8 2.1184 20.7344 1.84C20.6314 1.40902 20.4111 1.01496 20.0979 0.701489C19.7847 0.388018 19.3909 0.167372 18.96 0.0639999C18.6816 -5.58794e-08 18.368 0 18 0H14.08ZM13.4128 1.6224C13.4816 1.6064 13.5888 1.6 14.08 1.6H17.92C18.4128 1.6 18.5184 1.6048 18.5872 1.6224C18.7309 1.65677 18.8623 1.73028 18.9668 1.83478C19.0713 1.93927 19.1448 2.07067 19.1792 2.2144C19.1952 2.2816 19.2 2.3872 19.2 2.88V6.72C19.2 7.2128 19.1936 7.3184 19.1776 7.3872C19.1432 7.53093 19.0697 7.66233 18.9652 7.76682C18.8607 7.87132 18.7293 7.94483 18.5856 7.9792C18.5184 7.9952 18.4128 8 17.92 8H14.08C13.5872 8 13.4816 7.9952 13.4128 7.9776C13.2691 7.94323 13.1377 7.86972 13.0332 7.76522C12.9287 7.66073 12.8552 7.52933 12.8208 7.3856C12.8064 7.32 12.8 7.2144 12.8 6.72V2.88C12.8 2.3872 12.8048 2.2816 12.8224 2.2128C12.8568 2.06907 12.9303 1.93767 13.0348 1.83318C13.1393 1.72868 13.2707 1.65517 13.4144 1.6208L13.4128 1.6224ZM2.8 11.2H6.8C7.1664 11.2 7.4816 11.2 7.76 11.2656C8.19098 11.3686 8.58504 11.5889 8.89851 11.9021C9.21198 12.2153 9.43263 12.6091 9.536 13.04C9.6 13.3184 9.6 13.632 9.6 14V18C9.6 18.3664 9.6 18.6816 9.5344 18.96C9.43141 19.391 9.21112 19.785 8.89793 20.0985C8.58475 20.412 8.19089 20.6326 7.76 20.736C7.4816 20.8 7.168 20.8 6.8 20.8H2.8C2.4336 20.8 2.1184 20.8 1.84 20.7344C1.40902 20.6314 1.01496 20.4111 0.701489 20.0979C0.388018 19.7847 0.167372 19.3909 0.0639999 18.96C-6.14673e-08 18.6816 0 18.368 0 18V14C0 13.6336 1.11759e-08 13.3184 0.0656 13.04C0.168584 12.609 0.388874 12.215 0.702063 11.9015C1.01525 11.588 1.40911 11.3674 1.84 11.264C2.1184 11.2 2.432 11.2 2.8 11.2ZM2.88 12.8C2.3872 12.8 2.2816 12.8048 2.2128 12.8224C2.06907 12.8568 1.93767 12.9303 1.83318 13.0348C1.72868 13.1393 1.65517 13.2707 1.6208 13.4144C1.6064 13.48 1.6 13.5856 1.6 14.08V17.92C1.6 18.4128 1.6048 18.5184 1.6224 18.5872C1.65677 18.7309 1.73028 18.8623 1.83478 18.9668C1.93927 19.0713 2.07067 19.1448 2.2144 19.1792C2.2816 19.1952 2.3872 19.2 2.88 19.2H6.72C7.2128 19.2 7.3184 19.1936 7.3872 19.1776C7.53093 19.1432 7.66232 19.0697 7.76682 18.9652C7.87132 18.8607 7.94483 18.7293 7.9792 18.5856C7.9952 18.5184 8 18.4128 8 17.92V14.08C8 13.5872 7.9952 13.4816 7.9776 13.4128C7.94323 13.2691 7.86972 13.1377 7.76522 13.0332C7.66073 12.9287 7.52933 12.8552 7.3856 12.8208C7.32 12.8064 7.2144 12.8 6.72 12.8H2.88ZM14.08 11.2H14C13.6336 11.2 13.3184 11.2 13.04 11.2656C12.609 11.3686 12.215 11.5889 11.9015 11.9021C11.588 12.2153 11.3674 12.6091 11.264 13.04C11.2 13.3184 11.2 13.632 11.2 14V18C11.2 18.3664 11.2 18.6816 11.2656 18.96C11.3686 19.391 11.5889 19.785 11.9021 20.0985C12.2152 20.412 12.6091 20.6326 13.04 20.736C13.3184 20.8016 13.6336 20.8016 14 20.8016H18C18.3664 20.8016 18.6816 20.8016 18.96 20.736C19.3907 20.6328 19.7844 20.4123 20.0976 20.0992C20.4107 19.786 20.6312 19.3923 20.7344 18.9616C20.8 18.6832 20.8 18.368 20.8 18.0016V14C20.8 13.6336 20.8 13.3184 20.7344 13.04C20.6314 12.609 20.4111 12.215 20.0979 11.9015C19.7847 11.588 19.3909 11.3674 18.96 11.264C18.6816 11.2 18.368 11.2 18 11.2H14.08ZM13.4128 12.8224C13.4816 12.8064 13.5888 12.8 14.08 12.8H17.92C18.4128 12.8 18.5184 12.8048 18.5872 12.8224C18.7309 12.8568 18.8623 12.9303 18.9668 13.0348C19.0713 13.1393 19.1448 13.2707 19.1792 13.4144C19.1952 13.4816 19.2 13.5872 19.2 14.08V17.92C19.2 18.4128 19.1936 18.5184 19.1776 18.5872C19.1432 18.7309 19.0697 18.8623 18.9652 18.9668C18.8607 19.0713 18.7293 19.1448 18.5856 19.1792C18.5184 19.1952 18.4128 19.2 17.92 19.2H14.08C13.5872 19.2 13.4816 19.1936 13.4128 19.1776C13.2691 19.1432 13.1377 19.0697 13.0332 18.9652C12.9287 18.8607 12.8552 18.7293 12.8208 18.5856C12.8064 18.52 12.8 18.4144 12.8 17.92V14.08C12.8 13.5872 12.8048 13.4816 12.8224 13.4128C12.8568 13.2691 12.9303 13.1377 13.0348 13.0332C13.1393 12.9287 13.2707 12.8552 13.4144 12.8208L13.4128 12.8224Z" fill="#409CFF"/>
</svg>
