<svg width="18" height="25" viewBox="0 0 18 25" fill="none" xmlns="http://www.w3.org/2000/svg">
<path d="M4.12614 14.8975L2.03184 23.3777C1.8102 24.2727 2.90417 24.8846 3.5359 24.2187L17.7516 9.22251C17.8724 9.09536 17.9537 8.93505 17.9853 8.76152C18.0168 8.58799 17.9973 8.40889 17.9291 8.24651C17.8609 8.08413 17.747 7.94564 17.6017 7.84825C17.4563 7.75086 17.2859 7.69888 17.1116 7.69877H11.8254L13.8071 1.6842C13.8517 1.5489 13.8638 1.40482 13.8425 1.26385C13.8212 1.12288 13.7671 0.989055 13.6847 0.8734C13.6023 0.757744 13.4939 0.663574 13.3684 0.598653C13.243 0.533732 13.1041 0.499918 12.9632 0.5H4.66661C4.47346 0.50004 4.28558 0.563763 4.13139 0.681527C3.97721 0.79929 3.86511 0.964686 3.81206 1.15269L0.256356 13.7505C0.218571 13.8844 0.212002 14.0254 0.237168 14.1623C0.262333 14.2992 0.318546 14.4283 0.401381 14.5395C0.484216 14.6507 0.591413 14.7409 0.714534 14.803C0.837656 14.8652 0.973341 14.8975 1.11091 14.8975H4.12614Z" fill="#FFD426"/>
</svg>
