<svg width="187" height="50" viewBox="0 0 187 50" fill="none" xmlns="http://www.w3.org/2000/svg">
<path d="M10.6515 9.38776L9.15657 16.3265L18.6869 21.0204L28.0303 16.3265L26.7222 9.38776L22.9848 14.0816L18.6869 0L14.5758 14.0816L10.6515 9.38776Z" fill="#E1E0E3"/>
<path d="M0 16.3265L18.6869 50L37 16.3265L21.8636 24.0816L26.7222 29.5918H21.8636L18.6869 37.551L14.5758 29.5918H10.6515L14.5758 24.0816L0 16.3265Z" fill="#E1E0E3"/>
<path d="M60.8984 40.4453L68.3203 15.5625H70.7617L61.875 44H60.0781L60.8984 40.4453ZM53.3594 15.5625L60.7422 40.4453L61.5625 44H59.7852L50.918 15.5625H53.3594ZM77.6758 15.5625V44H75.4102V15.5625H77.6758ZM84.7461 15.5625H92.5391C94.2188 15.5625 95.6641 15.888 96.875 16.5391C98.099 17.1771 99.0365 18.1211 99.6875 19.3711C100.352 20.6081 100.684 22.1315 100.684 23.9414C100.684 25.2826 100.449 26.5 99.9805 27.5938C99.5117 28.6875 98.8607 29.599 98.0273 30.3281C97.207 31.0573 96.2435 31.5586 95.1367 31.832L94.3945 32.1641H86.2695L86.2305 30.0742H92.9102C94.1471 30.0742 95.1758 29.7878 95.9961 29.2148C96.8164 28.6289 97.4284 27.8737 97.832 26.9492C98.2487 26.0117 98.457 25.0091 98.457 23.9414C98.457 22.6523 98.2292 21.5391 97.7734 20.6016C97.3307 19.6641 96.6667 18.9414 95.7812 18.4336C94.9089 17.9128 93.8281 17.6523 92.5391 17.6523H86.9922V44H84.7461V15.5625ZM99.3359 44L93.2227 31.2656L95.6055 31.2461L101.719 43.7461V44H99.3359ZM113.379 15.5625V44H111.152V15.5625H113.379ZM121.465 15.5625V17.6523H103.086V15.5625H121.465ZM140.352 15.5625H142.578V35.6016C142.578 37.737 142.194 39.4492 141.426 40.7383C140.671 42.0143 139.648 42.9453 138.359 43.5312C137.083 44.1172 135.671 44.4102 134.121 44.4102C132.533 44.4102 131.1 44.1237 129.824 43.5508C128.548 42.9648 127.539 42.0273 126.797 40.7383C126.055 39.4492 125.684 37.737 125.684 35.6016V15.5625H127.91V35.6016C127.91 37.2552 128.177 38.5768 128.711 39.5664C129.245 40.543 129.98 41.2461 130.918 41.6758C131.855 42.1055 132.923 42.3203 134.121 42.3203C135.345 42.3203 136.419 42.1055 137.344 41.6758C138.281 41.2331 139.017 40.5234 139.551 39.5469C140.085 38.5703 140.352 37.2552 140.352 35.6016V15.5625ZM156.484 17.2812L148.281 44H145.977L155.02 15.5625H156.602L156.484 17.2812ZM163.828 44L155.625 17.2812L155.527 15.5625H157.09L166.152 44H163.828ZM162.559 33.9414V36.0508H149.727V33.9414H162.559ZM184.355 41.9102V44H172.051V41.9102H184.355ZM172.676 15.5625V44H170.41V15.5625H172.676Z" fill="#E1E0E3"/>
</svg>
