<svg width="25" height="21" viewBox="0 0 25 21" fill="none" xmlns="http://www.w3.org/2000/svg">
<path d="M23.3628 2.60791L18.1962 0.282914H17.137L12.4999 2.3625L7.86282 0.282914H7.79824L7.64324 0.166664H6.86824L1.70157 2.49166C1.44387 2.59041 1.22457 2.7691 1.0758 3.00154C0.92704 3.23398 0.856634 3.50796 0.874905 3.78333V19.5417C0.875265 19.7578 0.929848 19.9704 1.03365 20.1599C1.13746 20.3495 1.28717 20.51 1.46907 20.6267C1.67697 20.761 1.91907 20.8327 2.16657 20.8333C2.34934 20.8325 2.52984 20.7929 2.69615 20.7171L7.33324 18.6375L11.9703 20.7171H12.0349C12.1805 20.7851 12.3392 20.8204 12.4999 20.8204C12.6606 20.8204 12.8193 20.7851 12.9649 20.7171H13.0295L17.6666 18.6375L22.3037 20.7171C22.47 20.7929 22.6505 20.8325 22.8332 20.8333C23.0807 20.8327 23.3228 20.761 23.5307 20.6267C23.7126 20.51 23.8624 20.3495 23.9662 20.1599C24.07 19.9704 24.1245 19.7578 24.1249 19.5417V3.78333C24.1244 3.53486 24.0522 3.29182 23.917 3.08334C23.7819 2.87486 23.5894 2.70978 23.3628 2.60791ZM8.6249 3.46041L11.2082 4.61V17.5267L8.6249 16.3771V3.46041ZM21.5416 17.5396L18.9582 16.39V3.47333L21.5416 4.62291V17.5396Z" fill="#DCDCDD"/>
</svg>
