<svg width="16" height="20" viewBox="0 0 16 20" fill="none" xmlns="http://www.w3.org/2000/svg">
<path d="M16 14.246C16 13.9505 15.9418 13.658 15.8287 13.3851C15.7156 13.1122 15.5499 12.8642 15.3409 12.6553C15.132 12.4465 14.8839 12.2808 14.611 12.1679C14.338 12.0549 14.0454 11.9968 13.75 11.997H2.25C1.95449 11.9968 1.66185 12.0549 1.38881 12.168C1.11577 12.281 0.867675 12.4467 0.658717 12.6557C0.449759 12.8646 0.28403 13.1127 0.171004 13.3858C0.057977 13.6588 -0.000131204 13.9515 2.22441e-07 14.247V14.824C2.22441e-07 15.717 0.319 16.58 0.898 17.259C2.465 19.093 4.851 19.999 7.996 19.999C11.142 19.999 13.529 19.094 15.098 17.26C15.68 16.5806 15.9999 15.7155 16 14.821V14.246ZM2.249 13.497H13.75C14.163 13.497 14.498 13.832 14.498 14.247V14.822C14.4982 15.3584 14.3066 15.8773 13.958 16.285C12.701 17.753 10.734 18.498 7.995 18.498C5.257 18.498 3.291 17.753 2.038 16.285C1.69016 15.8777 1.49904 15.3596 1.499 14.824V14.246C1.49926 14.0474 1.57826 13.857 1.71867 13.7166C1.85908 13.5762 2.04943 13.4972 2.248 13.497H2.249ZM12.997 5.00197C12.9971 3.94892 12.6648 2.92272 12.0474 2.06968C11.4299 1.21664 10.5589 0.580316 9.55855 0.251441C8.55818 -0.0774351 7.47951 -0.0820718 6.47634 0.238192C5.47318 0.558455 4.59675 1.18727 3.972 2.03497C3.89954 2.01202 3.82401 2.00022 3.748 1.99997H1.25C1.05109 1.99997 0.860322 2.07899 0.71967 2.21964C0.579018 2.36029 0.5 2.55106 0.5 2.74997V8.24797C0.499737 8.60927 0.570674 8.96709 0.708757 9.30096C0.84684 9.63484 1.04936 9.93823 1.30475 10.1938C1.56014 10.4494 1.86338 10.6521 2.19716 10.7904C2.53093 10.9288 2.8887 11 3.25 11H3.5V10.996H3.51C3.67942 10.9962 3.84613 10.9534 3.9944 10.8714C4.14268 10.7894 4.26764 10.671 4.35752 10.5274C4.44741 10.3838 4.49925 10.2197 4.50817 10.0505C4.51708 9.8813 4.48278 9.71263 4.40849 9.56036C4.3342 9.40809 4.22236 9.27724 4.08353 9.18014C3.94469 9.08304 3.78342 9.02288 3.6149 9.00534C3.44639 8.98779 3.27618 9.01343 3.12032 9.07985C2.96446 9.14627 2.82807 9.25127 2.724 9.38497C2.50744 9.28452 2.32418 9.12415 2.19588 8.92284C2.06758 8.72153 1.99961 8.48769 2 8.24897V7.99997H2.748C3.128 7.99997 3.481 7.87797 3.768 7.67197C4.34639 8.58894 5.20715 9.29307 6.22056 9.67825C7.23396 10.0634 8.34511 10.1088 9.38655 9.80751C10.428 9.50621 11.3433 8.87459 11.9945 8.00782C12.6457 7.14106 12.9975 6.08611 12.997 5.00197ZM2.997 4.89597C2.99554 4.96663 2.99554 5.03731 2.997 5.10797V6.24897C2.997 6.31527 2.97066 6.37886 2.92378 6.42575C2.87689 6.47263 2.8133 6.49897 2.747 6.49897H2V3.50097H2.998V4.89597H2.997ZM4.497 5.09097V4.91297C4.52041 3.99272 4.90542 3.11874 5.56865 2.48034C6.23187 1.84195 7.1199 1.49055 8.04037 1.50225C8.96085 1.51396 9.83965 1.88783 10.4864 2.54288C11.1332 3.19793 11.4959 4.08142 11.4959 5.00197C11.4959 5.92252 11.1332 6.80601 10.4864 7.46106C9.83965 8.11611 8.96085 8.48998 8.04037 8.50169C7.1199 8.51339 6.23187 8.16199 5.56865 7.52359C4.90542 6.8852 4.52041 6.01122 4.497 5.09097Z" fill="#409CFF"/>
</svg>
