<svg width="16" height="16" viewBox="0 0 16 16" fill="none" xmlns="http://www.w3.org/2000/svg">
<path d="M9.66661 6.88634H14.1133C14.26 6.88634 14.4008 6.82804 14.5045 6.72427C14.6083 6.6205 14.6666 6.47976 14.6666 6.33301C14.6666 5.00693 14.1398 3.73516 13.2021 2.79747C12.2645 1.85979 10.9927 1.33301 9.66661 1.33301C9.51986 1.33301 9.37912 1.39131 9.27535 1.49508C9.17158 1.59885 9.11328 1.73959 9.11328 1.88634V6.33301C9.11328 6.47976 9.17158 6.6205 9.27535 6.72427C9.37912 6.82804 9.51986 6.88634 9.66661 6.88634ZM10.2199 2.48634C11.0509 2.60594 11.8209 2.99142 12.4145 3.58508C13.0082 4.17874 13.3937 4.94867 13.5133 5.77967H10.2199V2.48634Z" fill="#AEB1BC"/>
<path d="M14.0533 8.00038H8.62C8.54034 8.00038 8.46145 7.98469 8.38784 7.9542C8.31424 7.92371 8.24736 7.87903 8.19103 7.82269C8.13469 7.76636 8.09 7.69948 8.05952 7.62587C8.02903 7.55227 8.01334 7.47338 8.01334 7.39371V1.94705C8.01385 1.86057 7.99607 1.77497 7.96117 1.69585C7.92626 1.61673 7.87502 1.54589 7.81081 1.48797C7.74659 1.43005 7.67086 1.38636 7.58857 1.35978C7.50628 1.3332 7.4193 1.32431 7.33334 1.33371C6.08184 1.4666 4.89351 1.95103 3.90579 2.73097C2.91806 3.51092 2.17128 4.55451 1.75181 5.74109C1.33233 6.92766 1.2573 8.20873 1.53538 9.43616C1.81347 10.6636 2.43331 11.7872 3.32323 12.6772C4.21315 13.5671 5.33679 14.1869 6.56422 14.465C7.79165 14.7431 9.07272 14.668 10.2593 14.2486C11.4459 13.8291 12.4895 13.0823 13.2694 12.0946C14.0494 11.1069 14.5338 9.91855 14.6667 8.66705C14.6741 8.58213 14.6637 8.49661 14.6362 8.41593C14.6087 8.33524 14.5647 8.26117 14.507 8.19845C14.4493 8.13572 14.3792 8.08571 14.3011 8.05161C14.2229 8.0175 14.1386 8.00006 14.0533 8.00038Z" fill="#AEB1BC"/>
</svg>
