<svg width="23" height="20" viewBox="0 0 23 20" fill="none" xmlns="http://www.w3.org/2000/svg">
<path d="M5 8.57143C5 8.97143 4.68571 9.28571 4.28571 9.28571C3.88571 9.28571 3.57143 8.97143 3.57143 8.57143C3.57143 8.17143 3.88571 7.85714 4.28571 7.85714C4.68571 7.85714 5 8.17143 5 8.57143ZM7.85714 13.5714C7.45714 13.5714 7.14286 13.8857 7.14286 14.2857C7.14286 14.6857 7.45714 15 7.85714 15C8.25714 15 8.57143 14.6857 8.57143 14.2857C8.57143 13.8857 8.25714 13.5714 7.85714 13.5714ZM7.85714 4.28571C8.25714 4.28571 8.57143 3.97143 8.57143 3.57143C8.57143 3.17143 8.25714 2.85714 7.85714 2.85714C7.45714 2.85714 7.14286 3.17143 7.14286 3.57143C7.14286 3.97143 7.45714 4.28571 7.85714 4.28571ZM15 4.28571C15.4 4.28571 15.7143 3.97143 15.7143 3.57143C15.7143 3.17143 15.4 2.85714 15 2.85714C14.6 2.85714 14.2857 3.17143 14.2857 3.57143C14.2857 3.97143 14.6 4.28571 15 4.28571ZM11.4286 7.85714C11.0286 7.85714 10.7143 8.17143 10.7143 8.57143C10.7143 8.97143 11.0286 9.28571 11.4286 9.28571C11.8286 9.28571 12.1429 8.97143 12.1429 8.57143C12.1429 8.17143 11.8286 7.85714 11.4286 7.85714ZM22.8571 8.57143C22.8571 14.8857 17.7429 20 11.4286 20C5.11429 20 0 14.8857 0 8.57143C0 5.56582 1.17347 2.83698 3.07212 0.794202C3.57102 0.257441 4.29029 0 5.0231 0H17.834C18.5669 0 19.2861 0.25744 19.785 0.794202C21.6837 2.83698 22.8571 5.56582 22.8571 8.57143ZM12.8571 3.57143C12.8571 4.75714 13.8143 5.71429 15 5.71429C16.1857 5.71429 17.1429 4.75714 17.1429 3.57143C17.1429 2.38571 16.1857 1.42857 15 1.42857C13.8143 1.42857 12.8571 2.38571 12.8571 3.57143ZM5.71429 3.57143C5.71429 4.75714 6.67143 5.71429 7.85714 5.71429C9.04286 5.71429 10 4.75714 10 3.57143C10 2.38571 9.04286 1.42857 7.85714 1.42857C6.67143 1.42857 5.71429 2.38571 5.71429 3.57143ZM4.28571 11.4286C5.87143 11.4286 7.14286 10.1571 7.14286 8.57143C7.14286 7 5.87143 5.71429 4.28571 5.71429C2.7 5.71429 1.42857 7 1.42857 8.57143C1.42857 10.1571 2.71429 11.4286 4.28571 11.4286ZM10.7143 14.2857C10.7143 12.7143 9.44286 11.4286 7.85714 11.4286C6.27143 11.4286 5 12.7143 5 14.2857C5 15.8714 6.28571 17.1429 7.85714 17.1429C9.42857 17.1429 10.7143 15.8714 10.7143 14.2857ZM11.4286 11.4286C13.0143 11.4286 14.2857 10.1571 14.2857 8.57143C14.2857 7 13.0143 5.71429 11.4286 5.71429C9.84286 5.71429 8.57143 7 8.57143 8.57143C8.57143 10.1571 9.85714 11.4286 11.4286 11.4286ZM17.8571 14.2857C17.8571 12.7143 16.5857 11.4286 15 11.4286C13.4143 11.4286 12.1429 12.7143 12.1429 14.2857C12.1429 15.8714 13.4286 17.1429 15 17.1429C16.5714 17.1429 17.8571 15.8714 17.8571 14.2857ZM21.4286 8.57143C21.4286 7 20.1571 5.71429 18.5714 5.71429C16.9857 5.71429 15.7143 7 15.7143 8.57143C15.7143 10.1571 17 11.4286 18.5714 11.4286C20.1429 11.4286 21.4286 10.1571 21.4286 8.57143ZM18.5714 7.85714C18.1714 7.85714 17.8571 8.17143 17.8571 8.57143C17.8571 8.97143 18.1714 9.28571 18.5714 9.28571C18.9714 9.28571 19.2857 8.97143 19.2857 8.57143C19.2857 8.17143 18.9714 7.85714 18.5714 7.85714ZM15 13.5714C14.6 13.5714 14.2857 13.8857 14.2857 14.2857C14.2857 14.6857 14.6 15 15 15C15.4 15 15.7143 14.6857 15.7143 14.2857C15.7143 13.8857 15.4 13.5714 15 13.5714Z" fill="white"/>
</svg>
