<svg width="9" height="19" viewBox="0 0 9 19" fill="none" xmlns="http://www.w3.org/2000/svg">
<path d="M4.33333 17.6667V15.1667M2.66667 10.1667V8.08333V9.75M2.66667 10.1667H6C6.44203 10.1667 6.86595 10.3423 7.17851 10.6548C7.49107 10.9674 7.66667 11.3913 7.66667 11.8333V13.5C7.66667 13.942 7.49107 14.366 7.17851 14.6785C6.86595 14.9911 6.44203 15.1667 6 15.1667H2.66667C2.22464 15.1667 1.80072 14.9911 1.48816 14.6785C1.1756 14.366 1 13.942 1 13.5V11.8333C1 11.3913 1.1756 10.9674 1.48816 10.6548C1.80072 10.3423 2.22464 10.1667 2.66667 10.1667ZM6 9.75V8.08333M5.16667 1L3.5 3.08333H6L4.33333 5.16667L5.16667 1Z" stroke="#30C054" stroke-width="1.66667" stroke-linecap="round" stroke-linejoin="round"/>
</svg>
