<svg width="24" height="15" viewBox="0 0 24 15" fill="none" xmlns="http://www.w3.org/2000/svg">
<path fill-rule="evenodd" clip-rule="evenodd" d="M19.9016 1.09835C19.1984 0.395088 18.2446 0 17.25 0H3.75C2.75544 0 1.80161 0.395088 1.09835 1.09835C0.395088 1.80161 0 2.75544 0 3.75V11.25C0 12.2446 0.395088 13.1984 1.09835 13.9017C1.80161 14.6049 2.75544 15 3.75 15H17.25C18.2446 15 19.1984 14.6049 19.9016 13.9017C20.6049 13.1984 21 12.2446 21 11.25V10.0005L22.7505 10.0035C23.0819 10.0035 23.3997 9.87186 23.634 9.63753C23.8684 9.4032 24 9.08539 24 8.754V6.2535C24 5.92211 23.8684 5.6043 23.634 5.36997C23.3997 5.13564 23.0819 5.004 22.7505 5.004L21 4.9995V3.75C21 2.75544 20.6049 1.80161 19.9016 1.09835ZM3.75 1.419H17.625L17.817 1.428C18.2787 1.47553 18.7064 1.69265 19.0173 2.03735C19.3282 2.38205 19.5002 2.82981 19.5 3.294V11.5365L19.4895 11.7285C19.442 12.19 19.2251 12.6175 18.8807 12.9283C18.5363 13.2392 18.0889 13.4113 17.625 13.4115H3.375L3.183 13.4025C2.238 13.3065 1.5 12.507 1.5 11.5365V3.294L1.512 3.114C1.6425 2.163 2.775 1.419 3.75 1.419Z" fill="#409CFF"/>
<path d="M5.9174 4.5H5.90768L5.89686 4.50047L5.78136 4.50547L5.76829 4.50604L5.75527 4.50729C5.16841 4.56356 4.5 4.97709 4.5 5.69618V9.30298V9.31853L4.50097 9.33404L4.50647 9.42242L4.50807 9.44828L4.51235 9.47383C4.56746 9.8034 4.77265 10.0692 5.03277 10.2426C5.29193 10.4154 5.60726 10.5004 5.91889 10.5H5.9185V10L5.91924 10.5L5.9174 4.5ZM5.9174 4.5H5.9185H15.0804C15.0808 4.5 15.0811 4.5 15.0815 4.5H5.9174ZM5.9174 5H15.0804H15.0815M16.5 9.30332L16 9.30382L16.5 9.30332Z" stroke="#409CFF"/>
</svg>
