<svg width="31" height="19" viewBox="0 0 31 19" fill="none" xmlns="http://www.w3.org/2000/svg">
<path d="M22.2812 0C23.5659 0 24.7979 0.500445 25.7063 1.39124C26.6147 2.28204 27.125 3.49022 27.125 4.75V6.3327L29.3861 6.3384C29.8141 6.3384 30.2246 6.50515 30.5273 6.80196C30.83 7.09878 31 7.50134 31 7.9211V11.0884C31 11.5082 30.83 11.9107 30.5273 12.2075C30.2246 12.5044 29.8141 12.6711 29.3861 12.6711L27.125 12.6673V14.25C27.125 15.5098 26.6147 16.718 25.7063 17.6088C24.7979 18.4996 23.5659 19 22.2812 19H4.84375C3.55911 19 2.32708 18.4996 1.4187 17.6088C0.510322 16.718 0 15.5098 0 14.25V4.75C0 3.49022 0.510322 2.28204 1.4187 1.39124C2.32708 0.500445 3.55911 0 4.84375 0H22.2812ZM22.7656 1.7974H4.84375C3.58438 1.7974 2.12156 2.7398 1.953 3.9444L1.9375 4.1724V14.6129C1.9375 15.8422 2.89075 16.8549 4.11138 16.9765L4.35938 16.9879H22.7656C23.3649 16.9877 23.9428 16.7696 24.3876 16.3759C24.8324 15.9821 25.1126 15.4407 25.1739 14.8561L25.1875 14.6129V4.1724C25.1878 3.58443 24.9656 3.01726 24.5641 2.58065C24.1625 2.14403 23.61 1.86901 23.0136 1.8088L22.7656 1.7974ZM5.49088 3.7031H21.6302C22.4576 3.7031 23.1376 4.3073 23.2384 5.0901L23.25 5.2896V13.5109C23.2503 13.8973 23.1068 14.2706 22.8464 14.5606C22.5859 14.8506 22.2265 15.0374 21.8356 15.086L21.6322 15.0974H5.49281C5.09843 15.0982 4.71735 14.9576 4.42122 14.7022C4.12508 14.4468 3.93428 14.0941 3.88469 13.7104L3.875 13.509V5.2896C3.875 4.4802 4.49306 3.8133 5.28937 3.7145L5.49281 3.7031H21.6322H5.49281H5.49088Z" fill="white"/>
</svg>
