<svg width="19" height="18" viewBox="0 0 19 18" fill="none" xmlns="http://www.w3.org/2000/svg">
<path d="M12.1991 4.48715H8.07238L9.23629 5.65105C9.45304 5.88061 9.53377 6.20702 9.44897 6.51115C9.36417 6.81541 9.12633 7.0528 8.8219 7.13713C8.51764 7.22149 8.19136 7.14015 7.96228 6.92294L5.26305 4.23455C5.09404 4.066 4.99915 3.83718 4.99915 3.59861C4.99915 3.36004 5.09404 3.13122 5.26305 2.96267L7.96228 0.263441C8.18942 0.0362973 8.52063 -0.0525728 8.83093 0.0307215C9.14137 0.113866 9.38373 0.356226 9.46686 0.66666C9.55001 0.976952 9.46129 1.30804 9.23414 1.53531L8.07024 2.69922H12.1989C13.8666 2.70088 15.4659 3.36335 16.6465 4.54137C17.8269 5.71958 18.4927 7.31741 18.4978 8.98507C18.4995 10.3966 18.0221 11.7669 17.1439 12.872C16.9426 13.1173 16.6269 13.2386 16.313 13.191C15.9991 13.1435 15.7335 12.9343 15.6138 12.6403C15.494 12.3463 15.538 12.011 15.7295 11.7576C16.3562 10.9694 16.6972 9.99213 16.6969 8.98505C16.6957 7.79237 16.2216 6.64898 15.3782 5.80578C14.535 4.96242 13.3916 4.48825 12.1989 4.48705L12.1991 4.48715Z" fill="white"/>
<path d="M1.85571 5.09779C1.99881 4.89746 2.21782 4.76446 2.46154 4.72966C2.7054 4.69502 2.95272 4.76175 3.14614 4.91433C3.33954 5.06676 3.46185 5.29195 3.4849 5.53716C3.50794 5.78223 3.42947 6.02626 3.26785 6.21212C2.64124 7.00034 2.30006 7.97761 2.30052 8.98469C2.30157 10.1774 2.77589 11.3208 3.61925 12.164C4.46245 13.0073 5.60588 13.4815 6.79852 13.4827H10.9253L9.76134 12.3188C9.53405 12.0915 9.44533 11.7604 9.52847 11.45C9.61162 11.1397 9.85413 10.8973 10.1644 10.8142C10.4749 10.7309 10.8059 10.8198 11.0332 11.0469L13.7324 13.7461C13.9013 13.9147 13.9962 14.1435 13.9962 14.3821C13.9962 14.6207 13.9013 14.8495 13.7324 15.018L11.0332 17.7172C10.8662 17.8939 10.6348 17.9958 10.3917 17.9994C10.1486 18.0028 9.91435 17.9079 9.74233 17.7362C9.57017 17.5644 9.47497 17.3303 9.47813 17.0872C9.48129 16.8441 9.58266 16.6125 9.75905 16.4453L10.923 15.2814H6.80085C5.13099 15.2802 3.52984 14.6166 2.34905 13.436C1.16798 12.2555 0.503738 10.6545 0.502079 8.98455C0.500423 7.57305 0.977761 6.20277 1.85605 5.09766L1.85571 5.09779Z" fill="white"/>
</svg>
