<svg width="16" height="16" viewBox="0 0 16 16" fill="none" xmlns="http://www.w3.org/2000/svg">
<path d="M14.9969 8.74931e-08C14.7315 1.10692e-07 14.4768 0.105476 14.2892 0.293158C14.1015 0.480839 13.996 0.735477 13.996 1.00087L13.996 2.71949C12.8135 1.37727 11.2151 0.470471 9.45665 0.144003C7.69804 -0.182473 5.88063 0.0900938 4.29539 0.918321C2.7099 1.74656 1.448 3.0826 0.711531 4.71263C-0.0249399 6.34266 -0.193553 8.17263 0.232694 9.90989C0.658941 11.6472 1.65545 13.1912 3.06282 14.2954C4.47018 15.3994 6.20702 15.9996 7.99563 15.9999C9.7184 16.0068 11.3968 15.453 12.7771 14.4222C14.1574 13.3911 15.1649 11.9391 15.6473 10.2851C15.7494 9.94209 15.6607 9.57074 15.4146 9.31092C15.1686 9.05108 14.8027 8.94208 14.4546 9.02529C14.1065 9.10833 13.8292 9.37085 13.7271 9.71389C13.301 11.144 12.3571 12.3642 11.0798 13.1359C9.80234 13.9077 8.28332 14.1757 6.81903 13.8879C5.35475 13.6 4.05016 12.7767 3.16016 11.5788C2.27012 10.3809 1.85845 8.89435 2.00529 7.40915C2.15229 5.92412 2.84741 4.54706 3.9551 3.54686C5.06261 2.54667 6.50311 1.99502 7.99555 1.99969C9.69707 2.00588 11.3166 2.73234 12.4526 3.99904L10.9957 3.99904C10.6381 3.99904 10.3077 4.18974 10.1289 4.49948C9.95012 4.80922 9.95012 5.19061 10.1289 5.50036C10.3077 5.81009 10.6381 6.0008 10.9957 6.0008L14.9968 6.0008C15.2623 6.0008 15.5168 5.89532 15.7045 5.70764C15.8922 5.51996 15.9977 5.26532 15.9977 4.99993L15.9977 0.998816C15.997 0.733784 15.8914 0.479819 15.7037 0.292604C15.5162 0.105424 15.2619 6.43255e-08 14.9969 8.74931e-08Z" fill="white"/>
</svg>
