<svg width="22" height="22" viewBox="0 0 22 22" fill="none" xmlns="http://www.w3.org/2000/svg">
<path d="M8.142 20.5856C6.48803 20.0917 4.99009 19.1781 3.794 17.9336C4.17884 17.4771 4.41874 16.9162 4.483 16.3227C4.54726 15.7291 4.43296 15.1299 4.15472 14.6017C3.87649 14.0735 3.44698 13.6403 2.92115 13.3575C2.39531 13.0748 1.79708 12.9554 1.203 13.0146C1.06766 12.3516 0.999648 11.6767 1 11.0001C1 9.95507 1.16 8.94707 1.458 8.00007H1.5C2.00988 8.00024 2.51139 7.87044 2.95717 7.62295C3.40295 7.37545 3.7783 7.01842 4.04777 6.58557C4.31724 6.15271 4.47194 5.65832 4.49726 5.14907C4.52259 4.63982 4.4177 4.13252 4.1925 3.67507C5.3648 2.58348 6.78253 1.78999 8.326 1.36157C8.57719 1.85477 8.95992 2.26887 9.43186 2.55805C9.90379 2.84723 10.4465 3.00021 11 3.00007C11.5535 3.00021 12.0962 2.84723 12.5681 2.55805C13.0401 2.26887 13.4228 1.85477 13.674 1.36157C15.2175 1.78999 16.6352 2.58348 17.8075 3.67507C17.5807 4.13573 17.4759 4.6469 17.5031 5.15965C17.5304 5.6724 17.6888 6.16958 17.9632 6.60359C18.2376 7.03759 18.6188 7.3939 19.0703 7.63842C19.5219 7.88293 20.0286 8.00745 20.542 8.00007C20.8465 8.97093 21.0009 9.98259 21 11.0001C21 11.6901 20.93 12.3641 20.797 13.0146C20.2029 12.9554 19.6047 13.0748 19.0789 13.3575C18.553 13.6403 18.1235 14.0735 17.8453 14.6017C17.567 15.1299 17.4527 15.7291 17.517 16.3227C17.5813 16.9162 17.8212 17.4771 18.206 17.9336C17.0099 19.1781 15.512 20.0917 13.858 20.5856C13.6638 19.9802 13.2824 19.4522 12.7687 19.0775C12.2551 18.7029 11.6357 18.501 11 18.501C10.3643 18.501 9.74493 18.7029 9.23129 19.0775C8.71765 19.4522 8.33623 19.9802 8.142 20.5856Z" stroke="#409CFF" stroke-width="2" stroke-linejoin="round"/>
<path d="M11 14.5C11.4596 14.5 11.9148 14.4095 12.3394 14.2336C12.764 14.0577 13.1499 13.7999 13.4749 13.4749C13.7999 13.1499 14.0577 12.764 14.2336 12.3394C14.4095 11.9148 14.5 11.4596 14.5 11C14.5 10.5404 14.4095 10.0852 14.2336 9.66061C14.0577 9.23597 13.7999 8.85013 13.4749 8.52513C13.1499 8.20012 12.764 7.94231 12.3394 7.76642C11.9148 7.59053 11.4596 7.5 11 7.5C10.0717 7.5 9.1815 7.86875 8.52513 8.52513C7.86875 9.1815 7.5 10.0717 7.5 11C7.5 11.9283 7.86875 12.8185 8.52513 13.4749C9.1815 14.1313 10.0717 14.5 11 14.5V14.5Z" stroke="#409CFF" stroke-width="2" stroke-linejoin="round"/>
</svg>
