<svg width="22" height="25" viewBox="0 0 22 25" fill="none" xmlns="http://www.w3.org/2000/svg">
<path d="M20.5362 6.33875L20.5491 6.32583L15.7441 1.52083L14.375 2.89L17.1004 5.61542C15.8862 6.08042 15.0208 7.24292 15.0208 8.625C15.0208 9.04906 15.1043 9.46897 15.2666 9.86075C15.4289 10.2525 15.6667 10.6085 15.9666 10.9084C16.5722 11.514 17.3935 11.8542 18.25 11.8542C18.715 11.8542 19.1412 11.7508 19.5416 11.5829V20.8958C19.5416 21.6062 18.9604 22.1875 18.25 22.1875C17.5395 22.1875 16.9583 21.6062 16.9583 20.8958V15.0833C16.9583 13.6625 15.7958 12.5 14.375 12.5H13.0833V3.45833C13.0833 2.0375 11.9208 0.875 10.5 0.875H2.74996C1.32913 0.875 0.166626 2.0375 0.166626 3.45833V24.125H13.0833V14.4375H15.0208V20.8958C15.0208 21.7523 15.361 22.5736 15.9666 23.1792C16.5722 23.7848 17.3935 24.125 18.25 24.125C19.1064 24.125 19.9277 23.7848 20.5333 23.1792C21.1389 22.5736 21.4791 21.7523 21.4791 20.8958V8.625C21.4791 7.73375 21.1175 6.92 20.5362 6.33875ZM18.25 9.91667C17.5395 9.91667 16.9583 9.33542 16.9583 8.625C16.9583 7.91458 17.5395 7.33333 18.25 7.33333C18.9604 7.33333 19.5416 7.91458 19.5416 8.625C19.5416 9.33542 18.9604 9.91667 18.25 9.91667ZM5.33329 20.25V14.4375H2.74996L7.91663 4.75V11.2083H10.5L5.33329 20.25Z" fill="#409CFF"/>
</svg>
