<svg width="22" height="24" viewBox="0 0 22 24" fill="none" xmlns="http://www.w3.org/2000/svg">
<path fill-rule="evenodd" clip-rule="evenodd" d="M20.5758 5.59609L20.5634 5.60844C21.1194 6.16442 21.4654 6.94279 21.4654 7.79529V19.5326C21.4654 20.3518 21.1399 21.1374 20.5607 21.7167C19.9814 22.296 19.1958 22.6214 18.3766 22.6214C17.5574 22.6214 16.7718 22.296 16.1925 21.7167C15.6133 21.1374 15.2878 20.3518 15.2878 19.5326V13.3551H13.4346V11.5018H14.6701C16.0291 11.5018 17.1411 12.6138 17.1411 13.9728V19.5326C17.1411 20.2121 17.6971 20.7681 18.3766 20.7681C19.0561 20.7681 19.6121 20.2121 19.6121 19.5326V10.6246C19.2291 10.7852 18.8214 10.8841 18.3766 10.8841C17.5574 10.8841 16.7718 10.5586 16.1925 9.97938C15.9057 9.69256 15.6782 9.35206 15.5229 8.97731C15.3677 8.60256 15.2878 8.20091 15.2878 7.79529C15.2878 6.4733 16.1156 5.36134 17.277 4.91656L14.6701 2.30964L15.9797 1L20.5758 5.59609ZM17.1411 7.79529C17.1411 8.47482 17.6971 9.0308 18.3766 9.0308C19.0561 9.0308 19.6121 8.47482 19.6121 7.79529C19.6121 7.11576 19.0561 6.55978 18.3766 6.55978C17.6971 6.55978 17.1411 7.11576 17.1411 7.79529Z" fill="#409CFF"/>
<path d="M1 3C1 1.89543 1.89543 1 3 1H11.4348C12.5394 1 13.4348 1.89543 13.4348 3V23H1V3Z" stroke="#409CFF" stroke-width="2"/>
<path d="M6.46841 17.6678C6.35865 17.8324 6.102 17.7547 6.102 17.5568V14.113C6.102 14.0026 6.01246 13.913 5.902 13.913H4.23012C4.07321 13.913 3.97741 13.7406 4.06031 13.6074L7.96407 7.33348C8.07034 7.16269 8.33389 7.23799 8.33389 7.43914V11.3217C8.33389 11.4322 8.42343 11.5217 8.53389 11.5217H10.1921C10.3518 11.5217 10.4471 11.6998 10.3585 11.8327L6.46841 17.6678Z" fill="#409CFF"/>
</svg>
