<svg width="20" height="20" viewBox="0 0 20 20" fill="none" xmlns="http://www.w3.org/2000/svg">
<path d="M10 14C11.3118 14 12.4269 14.8419 12.8345 16.0149L12.8834 16.0067L13 16H19C19.5523 16 20 16.4477 20 17C20 17.5128 19.614 17.9355 19.1166 17.9933L19 18H13C12.9435 18 12.888 17.9953 12.834 17.9863C12.4269 19.1581 11.3118 20 10 20C8.68818 20 7.57311 19.1581 7.16546 17.9851L7.11664 17.9933L7.00001 18H1.00001C0.447686 18 7.08444e-06 17.5523 7.08444e-06 17C7.08444e-06 16.4872 0.386043 16.0645 0.883364 16.0067L0.999993 16H6.99999C7.05649 16 7.11202 16.0048 7.16601 16.0137C7.57308 14.8419 8.68819 14 10 14ZM10 16C9.44769 16 9.00001 16.4477 9.00001 17C9.00001 17.5523 9.44769 18 10 18C10.5523 18 11 17.5523 11 17C11 16.4477 10.5523 16 10 16ZM3.00001 7C4.31179 7 5.4269 7.84193 5.83454 9.01493L5.88337 9.0067L6 9.00001H19C19.5523 9.00001 20 9.44769 20 10C20 10.5128 19.614 10.9355 19.1166 10.9933L19 11H6.00001C5.94351 11 5.88799 10.9952 5.834 10.9863C5.42693 12.1581 4.31182 13 3 13C1.34318 13 0 11.6568 0 10C0 8.34317 1.34318 6.99999 3 6.99999L3.00001 7ZM3.00001 9C2.44769 9 2.00001 9.44768 2.00001 10C2.00001 10.5523 2.44769 11 3.00001 11C3.55233 11 4.00001 10.5523 4.00001 10C4.00001 9.44768 3.55233 9 3.00001 9ZM14 0C15.3118 0 16.4269 0.841929 16.8345 2.01493L16.8834 2.0067L17 2H19C19.5523 2 20 2.44768 20 3C20 3.51282 19.614 3.93554 19.1166 3.99329L19 3.99999H17C16.9435 3.99999 16.888 3.99524 16.834 3.98631C16.4269 5.15806 15.3118 5.99999 14 5.99999C12.6882 5.99999 11.5731 5.15806 11.1655 3.98506L11.1166 3.99329L11 3.99999H1.00001C0.447686 3.99999 7.08444e-06 3.55231 7.08444e-06 2.99999C7.08444e-06 2.48717 0.386043 2.06445 0.883364 2.0067L0.999993 2.00001H11C11.0565 2.00001 11.112 2.00475 11.166 2.01368C11.5731 0.841929 12.6882 0 14 0V0ZM14 2C13.4477 2 13 2.44768 13 3C13 3.55232 13.4477 4 14 4C14.5523 4 15 3.55232 15 3C15 2.44768 14.5523 2 14 2Z" fill="#409CFF"/>
</svg>
