<svg width="15" height="13" viewBox="0 0 15 13" fill="none" xmlns="http://www.w3.org/2000/svg">
<path d="M8.9375 4.875H9.75C10.6463 4.875 11.375 5.60371 11.375 6.5V11.375C11.375 12.2713 10.6463 13 9.75 13H1.625C0.727441 13 0 12.2713 0 11.375V6.5C0 5.60371 0.727441 4.875 1.625 4.875H7.3125V3.65625C7.3125 1.63693 8.9502 0 10.9688 0C12.9873 0 14.625 1.63693 14.625 3.65625V4.875C14.625 5.32441 14.2619 5.6875 13.8125 5.6875C13.3631 5.6875 13 5.32441 13 4.875V3.65625C13 2.53449 12.091 1.625 10.9688 1.625C9.84648 1.625 8.9375 2.53449 8.9375 3.65625V4.875Z" fill="white"/>
</svg>
