<svg width="29" height="23" viewBox="0 0 29 23" fill="none" xmlns="http://www.w3.org/2000/svg">
<path d="M12.59 13.6562H8.03496C3.73639 13.6562 0.25 17.1422 0.25 21.4412C0.25 22.3037 0.947188 23 1.80699 23H18.8162C19.6787 23 20.375 22.3037 20.375 21.4412C20.375 17.1422 16.8891 13.6562 12.59 13.6562ZM10.3125 11.5C13.4885 11.5 16.0625 8.92553 16.0625 5.75C16.0625 2.57447 13.4885 0 10.3125 0C7.13652 0 4.5625 2.57447 4.5625 5.75C4.5625 8.92553 7.13652 11.5 10.3125 11.5ZM28.6541 6.0375C28.2182 5.6332 27.5351 5.65778 27.1304 6.09437L23.2199 10.3058L21.4954 8.58125C21.0742 8.1601 20.3921 8.1601 19.9707 8.58125C19.5493 9.00239 19.5496 9.68453 19.9707 10.1059L22.4863 12.6215C22.6885 12.8252 22.9625 12.9375 23.25 12.9375H23.2697C23.4147 12.9348 23.5578 12.9029 23.6902 12.8437C23.8226 12.7845 23.9418 12.6992 24.0405 12.5929L28.7124 7.56161C29.1168 7.12461 29.0898 6.4418 28.6541 6.0375Z" fill="#9440FF"/>
</svg>
