<svg width="24" height="24" viewBox="0 0 24 24" fill="none" xmlns="http://www.w3.org/2000/svg">
<path d="M13.5357 14.0625H9.46429C5.34196 14.0625 2 17.4484 2 21.625C2 22.3843 2.60775 23 3.35714 23H19.6429C20.3923 23 21 22.3843 21 21.625C21 17.4484 17.658 14.0625 13.5357 14.0625ZM4.0777 20.9375C4.41275 18.2262 6.69911 16.125 9.46429 16.125H13.5357C16.2992 16.125 18.5868 18.2283 18.9219 20.9375H4.0777ZM11.5 12C14.498 12 16.9286 9.53746 16.9286 6.5C16.9286 3.46254 14.498 1 11.5 1C8.50199 1 6.07143 3.46254 6.07143 6.5C6.07143 9.53789 8.50156 12 11.5 12ZM11.5 3.0625C13.3707 3.0625 14.8929 4.60465 14.8929 6.5C14.8929 8.39535 13.3707 9.9375 11.5 9.9375C9.62926 9.9375 8.10714 8.39492 8.10714 6.5C8.10714 4.60465 9.62969 3.0625 11.5 3.0625Z" fill="#409CFF"/>
</svg>
