<svg width="29" height="23" viewBox="0 0 29 23" fill="none" xmlns="http://www.w3.org/2000/svg">
<path d="M10.3125 11.5C13.4885 11.5 16.0625 8.92553 16.0625 5.75C16.0625 2.57447 13.4885 0 10.3125 0C7.13652 0 4.5625 2.57447 4.5625 5.75C4.5625 8.92553 7.13652 11.5 10.3125 11.5ZM12.59 13.6562H8.03496C3.73459 13.6562 0.25 17.1422 0.25 21.4412C0.25 22.3037 0.947188 23 1.80699 23H18.8162C19.6787 23 20.375 22.3037 20.375 21.4412C20.375 17.1422 16.8891 13.6562 12.59 13.6562ZM21.7721 14.375H18.4546C20.5187 16.0686 21.8125 18.6021 21.8125 21.4412C21.8125 22.0162 21.6418 22.5463 21.3633 23H27.5625C28.3576 23 29 22.3531 29 21.5221C29 17.5914 25.7836 14.375 21.7721 14.375ZM19.6562 11.5C22.4369 11.5 24.6875 9.24941 24.6875 6.46875C24.6875 3.68809 22.4369 1.4375 19.6562 1.4375C18.5283 1.4375 17.4982 1.82181 16.6591 2.44869C17.1766 3.44236 17.5 4.55508 17.5 5.75C17.5 7.34562 16.9641 8.81098 16.0809 10.0046C16.9924 10.925 18.2547 11.5 19.6562 11.5Z" fill="#40F4FF"/>
</svg>
